<svg width="38" height="36" viewBox="0 0 38 36" fill="none" xmlns="http://www.w3.org/2000/svg">
<path fill-rule="evenodd" clip-rule="evenodd" d="M16.9772 0.0646715C10.3586 0.796624 4.68638 4.7216 1.84595 10.5348C-2.56487 19.562 1.18778 30.3176 10.3435 34.8903C10.8851 35.1608 11.7337 35.5301 12.2292 35.711C13.2831 36.0958 13.7235 36.0962 14.0599 35.7125C14.2572 35.4875 14.2633 35.4241 14.2633 33.5708V31.6609L14.0149 31.7197C13.8784 31.752 13.2383 31.8006 12.5926 31.8276C11.2187 31.885 10.493 31.7569 9.62651 31.3038C8.7757 30.859 8.30121 30.3289 7.72811 29.1825C7.17225 28.0707 6.70462 27.4641 6.01222 26.957C5.00734 26.2209 4.82898 25.9152 5.30003 25.7366C6.27023 25.3687 7.9341 26.2414 8.80306 27.5739C9.75267 29.0299 10.8699 29.6287 12.4521 29.5299C13.4218 29.4693 14.3536 29.1726 14.3536 28.9246C14.3536 28.5804 14.7396 27.6387 15.0838 27.1433C15.4899 26.5587 15.6034 26.6515 14.1934 26.4145C9.70508 25.6603 7.39875 23.2429 6.94006 18.8123C6.70137 16.506 7.1587 14.6679 8.36705 13.0768L8.80243 12.5035L8.64909 11.9277C8.34998 10.8044 8.49736 8.7861 8.94973 7.81241C9.06243 7.56969 9.07643 7.5657 9.65459 7.61398C10.7361 7.70416 12.3546 8.33619 13.7559 9.21545L14.228 9.51167L15.2165 9.30714C17.7129 8.79062 20.2962 8.79062 22.7926 9.30714L23.7811 9.51167L24.2532 9.21545C25.6606 8.33247 27.2731 7.70416 28.3663 7.61301L28.9681 7.56287L29.2149 8.30581C29.5498 9.31422 29.6208 10.9499 29.3707 11.8914L29.2038 12.5195L29.6401 13.0837C31.1273 15.0071 31.517 17.6763 30.7458 20.658C29.8841 23.99 27.4201 25.9318 23.362 26.4768C22.9274 26.5352 22.5718 26.6109 22.5718 26.6451C22.5718 26.6794 22.668 26.8201 22.7855 26.9577C23.1426 27.3764 23.4529 28.0685 23.6031 28.782C23.7168 29.3218 23.7458 30.0713 23.7458 32.4701C23.7458 35.4651 23.7469 35.4819 23.9492 35.7125C24.286 36.0966 24.7262 36.0959 25.7799 35.7098C36.0989 31.9277 40.9129 20.2558 36.1632 10.5348C33.4889 5.06167 28.3527 1.28019 22.1654 0.229168C20.9105 0.0159509 18.1956 -0.0701502 16.9772 0.0646715ZM6.7375 26.2485C6.56753 26.4151 6.91134 26.6756 7.12791 26.5443C7.23104 26.4818 7.23221 26.4445 7.1345 26.329C7.01086 26.1829 6.83973 26.1482 6.7375 26.2485ZM7.53466 26.8989C7.4225 27.077 7.58822 27.341 7.81218 27.341C8.07336 27.341 8.09865 27.162 7.86673 26.9561C7.67536 26.7862 7.61251 26.7754 7.53466 26.8989ZM8.24043 27.9288C8.1653 28.121 8.3218 28.3531 8.54893 28.3865C8.78861 28.4218 8.86547 28.2067 8.69731 27.9713C8.53773 27.7479 8.31918 27.7276 8.24043 27.9288ZM9.11563 29.0506C9.11563 29.3072 9.27475 29.467 9.53042 29.467C9.78717 29.467 9.85978 29.271 9.69072 29.0343C9.50206 28.77 9.11563 28.7811 9.11563 29.0506ZM10.4122 29.7782C10.3285 29.9922 10.5599 30.1877 10.862 30.158C11.1837 30.1265 11.257 29.9855 11.0548 29.7873C10.8708 29.6068 10.4814 29.6013 10.4122 29.7782ZM13.4726 29.835C13.2969 30.0074 13.3399 30.1672 13.5776 30.2258C13.8559 30.2942 14.1925 30.1196 14.1551 29.9261C14.1197 29.7426 13.633 29.6777 13.4726 29.835ZM11.9473 30.0443C11.9154 30.1258 11.9546 30.2523 12.037 30.333C12.2334 30.5257 12.6829 30.3839 12.6829 30.1292C12.6829 29.8934 12.0356 29.8186 11.9473 30.0443Z" fill="#E49D47"/>
</svg>
