<svg width="37" height="37" viewBox="0 0 37 37" fill="none" xmlns="http://www.w3.org/2000/svg">
<path fill-rule="evenodd" clip-rule="evenodd" d="M1.87578 0.109943C1.39958 0.258853 0.832668 0.675 0.518152 1.10656C-0.049809 1.88571 -0.0141311 0.646101 0.0122259 18.7002L0.035931 34.9559L0.258519 35.4088C0.667776 36.2412 1.43245 36.7847 2.38427 36.9195C3.13416 37.0257 33.8907 37.0273 34.6401 36.9211C34.9468 36.8777 35.3697 36.7551 35.5798 36.6488C36.0471 36.4122 36.5934 35.8348 36.8263 35.3313L37 34.9559V18.4594V1.96285L36.775 1.50504C36.4932 0.93188 35.8887 0.378945 35.3056 0.160998C34.8658 -0.0034053 34.8168 -0.00388706 18.535 0.00149138C5.47487 0.00574596 2.13951 0.0275005 1.87578 0.109943ZM9.73402 6.41563C10.9801 6.88139 11.6264 7.89302 11.5494 9.25721C11.5053 10.0392 11.288 10.5538 10.7932 11.0485C9.63317 12.208 7.44715 12.2577 6.23617 11.152C5.6081 10.5786 5.34437 9.96203 5.34437 9.0672C5.34437 8.49067 5.37925 8.30868 5.56913 7.89382C5.93853 7.08649 6.64012 6.52545 7.58086 6.28511C8.14046 6.14214 9.16903 6.20443 9.73402 6.41563ZM26.6432 14.041C29.077 14.6239 30.5896 16.3049 31.1949 19.0994C31.3511 19.8206 31.3624 20.1789 31.3929 25.3831L31.4252 30.902H28.6077H25.7902L25.7889 26.0253C25.7873 20.8635 25.7675 20.541 25.4002 19.7115C25.1756 19.2042 24.651 18.6696 24.1612 18.4487C23.8146 18.2924 23.6074 18.2593 22.976 18.259C22.2749 18.2587 22.1666 18.2805 21.6805 18.5196C21.0544 18.8275 20.5994 19.2914 20.2301 19.9979L19.9644 20.5064L19.9415 25.7042L19.9187 30.902H17.129H14.3394L14.3657 22.5735L14.392 14.2449L17.1559 14.2238L19.9199 14.2027L19.9421 15.3706L19.9644 16.5386L20.326 16.0404C21.0169 15.0885 22.1089 14.3569 23.2992 14.0487C24.144 13.8298 25.7462 13.8262 26.6432 14.041ZM11.226 22.5735L11.2464 30.902H8.43361H5.62072V22.607C5.62072 18.0446 5.64531 14.2873 5.67536 14.2573C5.70533 14.2273 6.96195 14.2122 8.46776 14.2238L11.2055 14.2449L11.226 22.5735Z" fill="#E49D47"/>
</svg>
